#!OML:ASF X:\für Bonn\!DataBase\2005_08_10_Bjorn_Final\c3d\bjorn.ASF
:FULLY-SPECIFIED
:DEGREES
31
root 1.01713 19.1038 2.48782 -174.197 0.515862 -178.618
lowerback -2.00816 1.1563 4.02381
upperback 5.81962 1.65931 -0.591656
thorax 7.34107 1.19453 -2.7184
lowerneck -14.0703 -3.38006 0.844066
upperneck 12.9392 -4.79329 -0.194636
head 6.2105 -2.32037 -0.64928
rclavicle -2.30839e-014 -4.22417e-016
rhumerus 71.3251 0.247106 -71.7018
rradius 10.1568
rwrist 43.0051
rhand -10.156 10.5101
rfingers 7.12502
rthumb 15.8334 -18.8625
lclavicle -2.30839e-014 -4.22417e-016
lhumerus 77.4003 -8.89001 66.1769
lradius 11.7348
lwrist -45.7868
lhand -16.7137 -9.59105
lfingers 7.12502
lthumb 9.51161 20.1743
rfemur -16.4159 -12.4859 18.7873
rtibia 32.6029
rfoot -18.5312 14.316
rtoes -16.856
lfemur -15.3973 5.51404 -17.5653
ltibia 32.7546
lfoot -20.3394 -9.07991
ltoes -11.5914
32
root 1.01604 19.0942 2.49662 -174.091 0.450273 -178.675
lowerback -1.84782 1.14585 4.05173
upperback 5.82885 1.65589 -0.602415
thorax 7.2587 1.19554 -2.74895
lowerneck -14.0449 -3.34407 0.855096
upperneck 12.6657 -4.74107 -0.149693
head 6.12037 -2.29038 -0.627249
rclavicle -7.72154e-015 -7.23079e-015
rhumerus 71.2687 0.318482 -71.8281
rradius 10.4239
rwrist 42.8104
rhand -10.2175 10.4634
rfingers 7.12502
rthumb 15.7742 -18.9139
lclavicle -7.72154e-015 -7.23079e-015
lhumerus 77.3917 -8.92945 66.2059
lradius 11.7063
lwrist -45.8056
lhand -16.9513 -9.77278
lfingers 7.12502
lthumb 9.28233 20.0029
rfemur -16.7853 -12.1394 18.78
rtibia 33.0315
rfoot -18.7629 13.8689
rtoes -17.1605
lfemur -15.8082 4.98895 -17.7084
ltibia 33.2249
lfoot -20.1449 -8.42871
ltoes -11.4432
33
root 1.0154 19.0831 2.50821 -173.984 0.422224 -178.73
lowerback -1.67172 1.14994 4.0994
upperback 5.85645 1.67533 -0.635769
thorax 7.19045 1.21131 -2.81237
lowerneck -14.0163 -3.31219 0.924025
upperneck 12.3475 -4.70122 -0.128318
head 6.01358 -2.26582 -0.622493
rclavicle -8.80243e-015 1.31695e-015
rhumerus 71.1469 0.316821 -72.1417
rradius 10.8527
rwrist 42.815
rhand -10.0787 10.4164
rfingers 7.12502
rthumb 15.9078 -18.9502
lclavicle -8.80243e-015 1.31695e-015
lhumerus 77.4641 -9.02424 65.8695
lradius 11.6716
lwrist -45.4686
lhand -17.3036 -9.8523
lfingers 7.12502
lthumb 8.94238 19.9382
rfemur -17.2294 -11.757 18.78
rtibia 33.5627
rfoot -19.0693 13.3851
rtoes -17.5847
lfemur -16.2999 4.59531 -17.8548
ltibia 33.8377
lfoot -19.9692 -7.79233
ltoes -11.311
34
root 1.01442 19.068 2.52421 -173.868 0.378894 -178.803
lowerback -1.43907 1.15547 4.14631
upperback 5.86692 1.70033 -0.690104
thorax 7.07228 1.22903 -2.89865
lowerneck -13.9039 -3.28962 1.04809
upperneck 11.9343 -4.67751 -0.139507
head 5.86066 -2.25043 -0.635406
rclavicle -1.43373e-014 9.74045e-015
rhumerus 70.9813 0.334071 -72.3082
rradius 11.2766
rwrist 42.6488
rhand -9.97528 10.3447
rfingers 7.12502
rthumb 16.0075 -19.014
lclavicle -1.43373e-014 9.74045e-015
lhumerus 77.5167 -9.15327 65.6568
lradius 11.5795
lwrist -45.3086
lhand -17.8545 -9.90916
lfingers 7.12502
lthumb 8.41075 19.9034
rfemur -17.7616 -11.4275 18.756
rtibia 34.2211
rfoot -19.3508 12.9961
rtoes -17.7151
lfemur -16.9092 4.18743 -18.02
ltibia 34.616
lfoot -19.7522 -7.24856
ltoes -10.5905
35
root 1.01413 19.0461 2.54292 -173.753 0.333 -178.879
lowerback -1.19122 1.13798 4.16732
upperback 5.88731 1.69641 -0.722481
thorax 6.95177 1.23095 -2.94986
lowerneck -13.7659 -3.24903 1.14537
upperneck 11.5012 -4.62089 -0.173104
head 5.69796 -2.22274 -0.64753
rclavicle -4.7522e-015 6.12505e-015
rhumerus 70.8446 0.411393 -72.418
rradius 11.7047
rwrist 42.5314
rhand -9.75699 10.2913
rfingers 7.12502
rthumb 16.2176 -19.0503
lclavicle -4.7522e-015 6.12505e-015
lhumerus 77.5502 -9.23241 65.3135
lradius 11.487
lwrist -45.0346
lhand -18.5976 -9.93704
lfingers 7.12502
lthumb 7.69357 19.903
rfemur -18.3743 -11.0845 18.7349
rtibia 35.0037
rfoot -19.7117 12.5567
rtoes -18.102
lfemur -17.6287 3.79513 -18.1886
ltibia 35.57
lfoot -19.5138 -6.67032
ltoes -9.66319
36
root 1.01335 19.017 2.5639 -173.626 0.314058 -178.933
lowerback -0.925337 1.14496 4.2181
upperback 5.90014 1.72465 -0.753019
thorax 6.81681 1.24979 -3.014
lowerneck -13.5549 -3.2297 1.24345
upperneck 10.9844 -4.59304 -0.19457
head 5.49747 -2.20934 -0.656077
rclavicle -1.6027e-015 -8.16881e-015
rhumerus 70.6573 0.491102 -72.4207
rradius 12.1361
rwrist 42.3836
rhand -9.55613 10.2374
rfingers 7.12502
rthumb 16.411 -19.0884
lclavicle -1.6027e-015 -8.16881e-015
lhumerus 77.6077 -9.37247 64.8478
lradius 11.3949
lwrist -44.6736
lhand -19.3521 -9.95357
lfingers 7.12502
lthumb 6.96531 19.9118
rfemur -19.0905 -10.7679 18.7338
rtibia 35.928
rfoot -20.092 12.1914
rtoes -18.4372
lfemur -18.4677 3.48151 -18.3401
ltibia 36.712
lfoot -19.3392 -6.14816
ltoes -8.73925
37
root 1.01295 18.983 2.588 -173.519 0.291907 -179.023
lowerback -0.606735 1.1416 4.24663
upperback 5.92371 1.74655 -0.812038
thorax 6.66271 1.26608 -3.09719
lowerneck -13.3955 -3.20075 1.37963
upperneck 10.4794 -4.56156 -0.21248
head 5.30923 -2.1926 -0.670609
rclavicle 1.29117e-014 -3.24267e-015
rhumerus 70.6136 0.567356 -72.3757
rradius 12.4056
rwrist 42.2769
rhand -9.36167 10.1909
rfingers 7.12502
rthumb 16.5983 -19.1193
lclavicle 1.29117e-014 -3.24267e-015
lhumerus 77.7124 -9.50236 64.3063
lradius 11.2721
lwrist -44.2744
lhand -20.186 -9.9914
lfingers 7.12502
lthumb 6.16027 19.899
rfemur -19.8612 -10.5143 18.6889
rtibia 36.9905
rfoot -20.5236 11.8757
rtoes -18.7154
lfemur -19.3886 3.18343 -18.5353
ltibia 38.0192
lfoot -19.3226 -5.62921
ltoes -8.52223
